<?xml version="1.0" encoding="iso-8859-1"?>
<!-- Uploaded to: SVG Repo, www.svgrepo.com, Generator: SVG Repo Mixer Tools -->
<svg fill="#000000" height="800px" width="800px" version="1.1" id="Layer_1" xmlns="http://www.w3.org/2000/svg" xmlns:xlink="http://www.w3.org/1999/xlink" 
	 viewBox="0 0 330 330" xml:space="preserve">
<path id="XMLID_240_" d="M315.001,30.013L250,30.009V15.004c0-8.284-6.716-15-15-15s-15,6.716-15,15v15.004l-40-0.002V15.004
	c0-8.284-6.716-15-15-15s-15,6.716-15,15v15l-40-0.002V15.004c0-8.284-6.716-15-15-15s-15,6.716-15,15V30l-64.999-0.003
	c0,0-0.001,0-0.001,0c-3.978,0-7.793,1.58-10.606,4.393C1.581,37.203,0,41.019,0,44.997v159.999c0,8.284,6.716,15,15,15h135v95
	c0,8.284,6.716,15,15,15s15-6.716,15-15v-95h135c8.284,0,15-6.716,15-15V45.013C330,36.729,323.285,30.013,315.001,30.013z
	 M300,189.996H30V59.998L80.871,60c2.061,5.824,7.6,10.003,14.129,10.003c6.529,0,12.068-4.179,14.129-10.002l41.743,0.002
	c2.061,5.822,7.6,10,14.128,10c6.527,0,12.065-4.177,14.128-9.998l41.745,0.002c2.063,5.82,7.6,9.996,14.127,9.996
	c6.526,0,12.064-4.176,14.126-9.995L300,60.012V189.996z"/>
</svg>